<svg width="26" height="28" viewBox="0 0 26 28" fill="none" xmlns="http://www.w3.org/2000/svg">
<path d="M1.83438 15.968C0.938375 15.456 0.490375 14.768 0.490375 13.904C0.490375 13.04 0.938375 12.352 1.83438 11.84L22.1384 0.511999C22.5864 0.255999 23.0184 0.127998 23.4344 0.127998C24.1704 0.127998 24.7624 0.479999 25.2104 1.184C25.4664 1.6 25.5944 1.968 25.5944 2.288C25.5944 2.992 25.1784 3.584 24.3464 4.064L6.15438 13.904L24.3464 23.744C25.1784 24.224 25.5944 24.816 25.5944 25.52C25.5944 25.84 25.4664 26.208 25.2104 26.624C24.7624 27.328 24.1704 27.68 23.4344 27.68C23.0184 27.68 22.5864 27.552 22.1384 27.296L1.83438 15.968Z" fill="black"/>
</svg>
