<svg aria-hidden="true" style="position:absolute;width:0;height:0;overflow:hidden" xmlns="http://www.w3.org/2000/svg">
  <defs>
    <symbol id="icon-cart-shopping-fast_9797830" viewBox="0 0 32 32">
      <path d="M4.92 9.333H0V6.666h4.6l.32 2.667zm-4.92 8V20h6.173l-.32-2.667H0zM5.227 12H0v2.667h5.547L5.227 12zm23.56 8H11.534l.173 1.493c.08.667.653 1.173 1.32 1.173h14.96v2.667H13.04A4.005 4.005 0 0 1 9.067 21.8L6.947 3.84a1.336 1.336 0 0 0-1.32-1.173h-2.96V0h2.96A4.005 4.005 0 0 1 9.6 3.533L9.653 4h22.333l-3.2 16zm-.054-13.333H9.973l1.253 10.667h15.373l2.133-10.667zM12 26.667c-1.467 0-2.667 1.2-2.667 2.667s1.2 2.667 2.667 2.667 2.667-1.2 2.667-2.667-1.2-2.667-2.667-2.667zm12 0c-1.467 0-2.667 1.2-2.667 2.667s1.2 2.667 2.667 2.667 2.667-1.2 2.667-2.667-1.2-2.667-2.667-2.667z"/>
    </symbol>
    <symbol id="icon-back" viewBox="0 0 30 32">
      <path d="M2.096 18.249C1.072 17.664.56 16.878.56 15.89s.512-1.774 1.536-2.359L25.301.585c.512-.293 1.006-.439 1.481-.439.841 0 1.518.402 2.03 1.207.293.475.439.896.439 1.262 0 .805-.475 1.481-1.426 2.03L7.034 15.891l20.791 11.246c.951.549 1.426 1.225 1.426 2.03 0 .366-.146.786-.439 1.262-.512.805-1.189 1.207-2.03 1.207-.475 0-.969-.146-1.481-.439L2.096 18.251z"/>
    </symbol>
    <symbol id="icon-new" viewBox="0 0 30 32">
      <path stroke-width="1.241" d="M14.378 5.172c.813-1.533 3.017-1.51 3.798.04l1.669 3.313a3.378 3.378 0 0 0 2.459 1.812l3.637.61c1.73.29 2.394 2.425 1.133 3.645l-2.589 2.505a3.38 3.38 0 0 0-.992 2.926l.533 3.577c.257 1.723-1.545 3.014-3.094 2.216l-3.337-1.72a3.38 3.38 0 0 0-3.033-.032l-3.373 1.65c-1.565.766-3.34-.562-3.047-2.28l.608-3.565a3.38 3.38 0 0 0-.931-2.947l-2.536-2.559c-1.234-1.246-.526-3.366 1.209-3.62l3.649-.534a3.38 3.38 0 0 0 2.496-1.76l1.738-3.278z"/>
      <path d="M10.312 17.954c-.11-.001-.198-.032-.264-.091s-.098-.141-.097-.244l.022-2.08c.005-.489.162-.87.47-1.143s.733-.406 1.273-.4c.541.006.962.148 1.265.427s.451.663.446 1.152l-.022 2.08c-.001.103-.035.184-.102.242s-.155.087-.266.086a.401.401 0 0 1-.269-.091.318.318 0 0 1-.097-.244l.022-2.096c.003-.313-.079-.553-.246-.72s-.413-.253-.737-.256c-.324-.003-.571.077-.742.241s-.258.402-.261.715l-.022 2.096a.313.313 0 0 1-.107.242.386.386 0 0 1-.266.086zm4.561-.008c-.279-.003-.496-.079-.649-.228s-.228-.355-.225-.62l.023-2.207c.003-.258.078-.457.227-.599.152-.142.361-.211.626-.209l1.716.018c.11.001.195.028.253.08.058.048.087.119.086.21a.259.259 0 0 1-.096.209.384.384 0 0 1-.249.069l-1.589-.017a.224.224 0 0 0-.177.07.297.297 0 0 0-.063.198l-.008.767 1.407.015c.11.001.195.028.253.08.058.048.087.119.086.211a.259.259 0 0 1-.096.209.384.384 0 0 1-.249.069l-1.407-.015-.009.85a.296.296 0 0 0 .059.199.231.231 0 0 0 .176.074l1.71.018c.11.001.195.028.253.08.058.048.087.119.086.21a.259.259 0 0 1-.096.209.384.384 0 0 1-.249.069l-1.798-.019zm3.963.097a.67.67 0 0 1-.495-.193c-.12-.13-.204-.331-.253-.604l-.517-2.814a.677.677 0 0 1-.01-.094c.001-.092.031-.162.09-.209a.41.41 0 0 1 .254-.069c.221.002.348.101.383.296l.493 2.957a.75.75 0 0 0 .037.122c.011.018.026.028.044.028.044.001.072-.047.084-.142l.375-2.639a.725.725 0 0 1 .214-.445c.119-.105.268-.157.449-.155s.327.057.44.165a.701.701 0 0 1 .21.449l.32 2.646c.01.096.037.144.081.144.018 0 .033-.009.044-.027a.663.663 0 0 0 .04-.121l.555-2.946c.039-.194.169-.291.389-.288a.388.388 0 0 1 .248.074c.062.048.093.119.092.211 0 .018-.004.05-.012.094l-.576 2.802c-.054.272-.145.471-.271.599-.123.124-.287.185-.493.182s-.365-.066-.478-.193c-.113-.126-.186-.322-.22-.587l-.3-2.475c-.007-.055-.016-.094-.026-.116s-.027-.034-.049-.034c-.022 0-.039.011-.05.033s-.021.06-.029.116l-.351 2.468c-.039.264-.117.459-.232.582s-.276.185-.482.182z"/>
    </symbol>
    <symbol id="icon-next" viewBox="0 0 30 32">
      <path d="M27.618 13.751c1.024.585 1.536 1.371 1.536 2.359s-.512 1.774-1.536 2.359L4.413 31.415c-.512.293-1.006.439-1.481.439-.841 0-1.518-.402-2.03-1.207-.293-.475-.439-.896-.439-1.262 0-.805.475-1.481 1.426-2.03L22.68 16.109 1.889 4.863C.938 4.314.463 3.638.463 2.833c0-.366.146-.786.439-1.262C1.414.766 2.091.364 2.932.364c.475 0 .969.146 1.481.439l23.205 12.946z"/>
    </symbol>
    <symbol id="icon-instargam" viewBox="0 0 32 32">
      <path stroke-width=".8" d="M9.499.408h.4V.4h12.724c4.772 0 8.678 3.988 8.678 8.89v13.419c0 4.902-3.906 8.89-8.67 8.89H9.5c-4.773 0-8.685-3.981-8.685-8.874V9.298C.815 4.397 4.728.408 9.5.408zM2.421 9.304v13.428c0 3.989 3.142 7.213 7.078 7.213H22.63c3.923 0 7.063-3.226 7.063-7.229V9.297c0-4.003-3.141-7.229-7.071-7.229H9.498c-3.93 0-7.071 3.226-7.079 7.236zM24.888 6.16c0-.472.363-.83.803-.83s.803.358.803.83-.363.83-.803.83-.803-.358-.803-.83zM8.042 16.003c0-4.525 3.62-8.213 8.023-8.213s8.023 3.688 8.023 8.213c0 4.525-3.62 8.213-8.023 8.213s-8.023-3.688-8.023-8.213zm14.44 0c0-3.627-2.848-6.552-6.417-6.552s-6.417 2.925-6.417 6.552 2.848 6.552 6.417 6.552 6.417-2.925 6.417-6.552z"/>
    </symbol>
    <symbol id="icon-twitter" viewBox="0 0 32 32">
      <path d="M29.333 7.898c-.992.435-2.048.723-3.15.863a5.44 5.44 0 0 0 2.405-3.022 10.916 10.916 0 0 1-3.467 1.323 5.465 5.465 0 0 0-9.456 3.738c0 .433.037.85.127 1.247-4.545-.222-8.567-2.4-11.268-5.718a5.5 5.5 0 0 0-.748 2.763c0 1.893.975 3.572 2.428 4.543a5.412 5.412 0 0 1-2.47-.673v.06a5.493 5.493 0 0 0 4.38 5.372c-.445.122-.93.18-1.433.18-.35 0-.703-.02-1.035-.093.708 2.165 2.718 3.757 5.108 3.808a10.985 10.985 0 0 1-6.778 2.332c-.448 0-.878-.02-1.308-.075a15.39 15.39 0 0 0 8.387 2.453c10.06 0 15.56-8.333 15.56-15.557 0-.242-.008-.475-.02-.707a10.91 10.91 0 0 0 2.74-2.838z"/>
    </symbol>
    <symbol id="icon-facebook1" viewBox="0 0 32 32">
      <path d="M21.329 5.313h2.921V.225C23.746.156 22.013 0 19.994 0c-4.212 0-7.097 2.649-7.097 7.519V12H8.249v5.688h4.648V32h5.699V17.689h4.46l.708-5.688h-5.169V8.082c.001-1.644.444-2.769 2.735-2.769z"/>
    </symbol>
  </defs>
</svg>
