<svg width="220" height="232" viewBox="0 0 220 232" fill="none" xmlns="http://www.w3.org/2000/svg">
<path d="M104.241 37.497C110.136 26.3829 126.116 26.5502 131.777 37.7852L143.88 61.8071C147.391 68.7758 154.011 73.6552 161.707 74.946L188.074 79.3685C200.615 81.4719 205.427 96.9491 196.29 105.793L177.523 123.957C171.843 129.454 169.164 137.355 170.33 145.174L174.195 171.104C176.058 183.599 162.994 192.955 151.765 187.168L127.569 174.7C120.688 171.154 112.536 171.069 105.582 174.47L81.1311 186.429C69.7831 191.979 56.9178 182.352 59.0415 169.899L63.4491 144.055C64.7781 136.262 62.2654 128.307 56.7014 122.692L38.3187 104.139C29.3685 95.1064 34.5036 79.7333 47.0857 77.8928L73.5399 74.0231C81.2609 72.8937 87.9821 68.154 91.6382 61.2603L104.241 37.497Z" stroke="#0569DE" stroke-width="9"/>
<path d="M74.7652 130.165C73.9653 130.156 73.3276 129.936 72.852 129.504C72.3765 129.073 72.1427 128.484 72.1505 127.737L72.3083 112.658C72.3455 109.111 73.4811 106.35 75.7152 104.373C77.9494 102.396 81.0263 101.429 84.9461 101.47C88.8659 101.511 91.9219 102.543 94.1142 104.566C96.3065 106.589 97.3841 109.373 97.347 112.92L97.1891 127.999C97.1813 128.746 96.9352 129.33 96.4508 129.751C95.9663 130.173 95.3241 130.38 94.5242 130.371C93.7242 130.363 93.0731 130.143 92.571 129.711C92.0957 129.253 91.8619 128.663 91.8694 127.943L92.0285 112.744C92.0522 110.478 91.4571 108.738 90.243 107.525C89.029 106.313 87.2487 105.694 84.9022 105.669C82.5556 105.645 80.7628 106.226 79.5236 107.413C78.2845 108.6 77.653 110.327 77.6293 112.594L77.4702 127.793C77.4627 128.513 77.2032 129.097 76.6918 129.545C76.2074 129.966 75.5652 130.173 74.7652 130.165ZM107.829 130.111C105.803 130.089 104.235 129.54 103.126 128.461C102.017 127.383 101.473 125.884 101.493 123.964L101.661 107.965C101.68 106.098 102.229 104.651 103.306 103.622C104.41 102.593 105.922 102.089 107.842 102.109L120.282 102.239C121.082 102.248 121.693 102.441 122.116 102.819C122.539 103.17 122.747 103.679 122.74 104.345C122.733 104.985 122.501 105.489 122.044 105.858C121.614 106.2 121.012 106.367 120.238 106.359L108.719 106.239C108.186 106.233 107.757 106.402 107.434 106.745C107.137 107.089 106.985 107.567 106.979 108.18L106.92 113.74L117.12 113.847C117.92 113.855 118.531 114.048 118.954 114.426C119.377 114.777 119.585 115.286 119.578 115.953C119.571 116.593 119.339 117.097 118.882 117.466C118.452 117.808 117.85 117.975 117.077 117.967L106.877 117.86L106.813 124.02C106.806 124.633 106.948 125.114 107.238 125.464C107.554 125.814 107.979 125.992 108.512 125.998L120.912 126.127C121.712 126.136 122.323 126.329 122.746 126.707C123.169 127.058 123.377 127.567 123.37 128.233C123.363 128.873 123.131 129.377 122.674 129.746C122.244 130.088 121.642 130.255 120.868 130.247L107.829 130.111ZM136.559 130.811C135.066 130.796 133.871 130.33 132.973 129.414C132.103 128.471 131.492 127.011 131.139 125.034L127.393 104.634C127.343 104.313 127.318 104.086 127.32 103.953C127.327 103.287 127.545 102.782 127.976 102.44C128.432 102.098 129.048 101.931 129.821 101.939C131.421 101.956 132.347 102.672 132.599 104.088L136.174 125.527C136.277 125.955 136.367 126.249 136.445 126.41C136.524 126.544 136.63 126.612 136.763 126.613C137.083 126.617 137.287 126.272 137.374 125.58L140.094 106.447C140.295 105.062 140.813 103.988 141.648 103.223C142.509 102.459 143.593 102.083 144.9 102.097C146.207 102.111 147.269 102.509 148.088 103.29C148.933 104.073 149.442 105.158 149.614 106.547L151.933 125.732C152.006 126.426 152.202 126.775 152.522 126.778C152.655 126.78 152.763 126.714 152.844 126.582C152.926 126.422 153.022 126.13 153.133 125.705L157.157 104.345C157.439 102.935 158.379 102.238 159.979 102.255C160.752 102.263 161.351 102.443 161.774 102.794C162.223 103.145 162.445 103.654 162.438 104.321C162.436 104.454 162.407 104.68 162.351 105L158.178 125.317C157.784 127.287 157.129 128.733 156.212 129.657C155.323 130.554 154.131 130.995 152.638 130.98C151.145 130.964 149.99 130.499 149.173 129.583C148.355 128.668 147.824 127.249 147.577 125.326L145.405 107.383C145.356 106.982 145.292 106.701 145.214 106.541C145.135 106.38 145.016 106.298 144.856 106.297C144.696 106.295 144.575 106.374 144.494 106.533C144.412 106.692 144.342 106.971 144.285 107.371L141.737 125.265C141.451 127.182 140.889 128.59 140.053 129.488C139.217 130.386 138.052 130.827 136.559 130.811Z" fill="#0569DE"/>
</svg>
