<svg width="26" height="28" viewBox="0 0 26 28" fill="none" xmlns="http://www.w3.org/2000/svg">
<path d="M24.1656 12.032C25.0616 12.544 25.5096 13.232 25.5096 14.096C25.5096 14.96 25.0616 15.648 24.1656 16.16L3.86163 27.488C3.41363 27.744 2.98163 27.872 2.56563 27.872C1.82963 27.872 1.23763 27.52 0.789625 26.816C0.533625 26.4 0.405625 26.032 0.405625 25.712C0.405625 25.008 0.821625 24.416 1.65363 23.936L19.8456 14.096L1.65363 4.256C0.821627 3.776 0.405627 3.184 0.405627 2.48C0.405627 2.16 0.533627 1.792 0.789628 1.376C1.23763 0.671998 1.82963 0.319998 2.56563 0.319998C2.98163 0.319998 3.41363 0.447998 3.86163 0.703998L24.1656 12.032Z" fill="black"/>
</svg>
